<svg width="16" height="16" viewBox="0 0 16 16" fill="none" xmlns="http://www.w3.org/2000/svg">
<path d="M13.5 1H2.5C1.67156 1 1 1.67156 1 2.5V13.5C1 14.3284 1.67156 15 2.5 15H13.5C14.3284 15 15 14.3284 15 13.5V2.5C15 1.67156 14.3284 1 13.5 1ZM6.56616 8.19075C3.73216 6.13397 3.76103 6.12878 3 5.53647V4.75C3 4.33578 3.33578 4 3.75 4H12.25C12.6642 4 13 4.33578 13 4.75V5.53647C12.2384 6.12925 12.2677 6.13409 9.43384 8.19078C9.10572 8.43 8.45284 9.00703 8 8.99997C7.54678 9.00678 6.89478 8.43038 6.56616 8.19075ZM13 6.80547V11.25C13 11.6642 12.6642 12 12.25 12H3.75C3.33578 12 3 11.6642 3 11.25V6.80547C3.43619 7.14278 4.04153 7.59409 5.97822 8.99966C6.42078 9.32281 7.16494 10.0042 7.99991 9.99997C8.84012 10.0042 9.59481 9.31119 10.0224 8.99919C11.9586 7.59403 12.5638 7.14275 13 6.80547Z" fill="#9C7EC2"/>
</svg>
